<?xml version="1.0" encoding="UTF-8"?>
<svg id="Calque_1" data-name="Calque 1" xmlns="http://www.w3.org/2000/svg" viewBox="0 0 3600.11 1629.94">
  <defs>
    <style>
      .cls-1 {
        fill: #ffd75f;
      }

      .cls-1, .cls-2, .cls-3 {
        stroke-width: 0px;
      }

      .cls-4 {
        font-family: NoahText-ExtraBold, 'Noah Text';
        font-size: 930px;
        letter-spacing: -.03em;
      }

      .cls-4, .cls-5 {
        fill: #1d1d1b;
        font-weight: 700;
      }

      .cls-6 {
        letter-spacing: -.04em;
      }

      .cls-7 {
        letter-spacing: -.03em;
      }

      .cls-8 {
        letter-spacing: 0em;
      }

      .cls-9 {
        letter-spacing: 0em;
      }

      .cls-10 {
        letter-spacing: -.04em;
      }

      .cls-5 {
        font-family: NoahText-Bold, 'Noah Text';
        font-size: 220.2px;
      }

      .cls-11 {
        letter-spacing: -.01em;
      }

      .cls-2 {
        fill: #181b1d;
      }

      .cls-3 {
        fill: #ed6a22;
      }
    </style>
  </defs>
  <text class="cls-4" transform="translate(1236.92 1311.54)"><tspan x="0" y="0">GoGo</tspan></text>
  <text class="cls-5" transform="translate(1270.11 1565.2) scale(1.06 1)"><tspan class="cls-7" x="0" y="0">B</tspan><tspan class="cls-6" x="131.68" y="0">Y</tspan><tspan class="cls-9" x="264.68" y="0" xml:space="preserve"> IMPERIAL ENE</tspan><tspan class="cls-8" x="1755.83" y="0">R</tspan><tspan class="cls-11" x="1892.36" y="0">G</tspan><tspan class="cls-10" x="2051.34" y="0">Y</tspan></text>
  <g>
    <path class="cls-2" d="m1157,1051.4c-10.53,183.65-112.2,353.74-314.65,459.61-108.55,56.76-225.88,76.46-345.98,57.47-221.26-34.98-377.09-158.68-457.27-368.07-66.82-174.52-47.83-344.05,55.87-501.21C242.76,475.21,391.76,252.01,540.26,28.48c2.77-4.17,5.62-8.29,8.6-12.32,15.29-20.69,34.47-21.61,51.55-2.21,4.52,5.14,8.29,10.97,12.15,16.66,147.97,218.56,295.68,437.29,443.94,655.64,66.14,97.41,100.97,204.19,100.5,365.15ZM574.68,201.87c-4.2,6.19-7.01,10.26-9.75,14.37-116.96,175.43-232.6,351.75-351.31,525.99-78.95,115.88-106.98,239.9-70.47,375.72,76.18,283.34,405.86,417.85,660.08,271.19,220.48-127.19,302.13-411.31,146.21-635.23-88.32-126.84-175.06-254.78-262.05-382.54-37.65-55.3-74.13-111.4-112.71-169.5Z"/>
    <path class="cls-1" d="m574.68,201.87c38.58,58.1,75.06,114.2,112.71,169.5,86.99,127.76,173.74,255.7,262.05,382.54,155.91,223.92,74.27,508.04-146.21,635.23-254.22,146.66-583.9,12.15-660.08-271.19-36.52-135.82-8.48-259.84,70.47-375.72,118.71-174.24,234.36-350.56,351.31-525.99,2.74-4.11,5.55-8.18,9.75-14.37Zm-264.9,813.6c.75,45.85,15.23,99.17,50.67,144.85,63.88,82.32,149.35,114.25,251.83,104.13,172.03-16.99,281.53-194.91,214.57-354.38-19.6-46.69-51.35-88.63-79.95-131.11-51.11-75.9-104.12-150.53-156.2-225.78-8.32-12.01-16.47-15.19-25.96-1.46-69.85,101.06-140.33,201.69-209.28,303.36-30.17,44.48-45.48,94.64-45.68,160.4Z"/>
    <path class="cls-3" d="m309.78,1015.47c.2-65.76,15.51-115.92,45.68-160.4,68.95-101.67,139.43-202.3,209.28-303.36,9.48-13.72,17.64-10.55,25.96,1.46,52.08,75.25,105.09,149.88,156.2,225.78,28.61,42.48,60.35,84.42,79.95,131.11,66.96,159.47-42.53,337.4-214.57,354.38-102.48,10.12-187.95-21.81-251.83-104.13-35.44-45.68-49.92-99-50.67-144.85Z"/>
  </g>
</svg>