<svg xmlns="http://www.w3.org/2000/svg" width="120" height="120" viewBox="0 0 120 120">
  <rect width="120" height="120" fill="white"/>
  <rect x="10" y="10" width="100" height="100" fill="white" stroke="#000" stroke-width="2"/>
  <!-- QR Pattern Placeholder -->
  <g fill="#000">
    <!-- Position markers -->
    <rect x="15" y="15" width="25" height="25"/>
    <rect x="80" y="15" width="25" height="25"/>
    <rect x="15" y="80" width="25" height="25"/>
    <rect x="20" y="20" width="15" height="15" fill="white"/>
    <rect x="85" y="20" width="15" height="15" fill="white"/>
    <rect x="20" y="85" width="15" height="15" fill="white"/>
    <rect x="25" y="25" width="5" height="5"/>
    <rect x="90" y="25" width="5" height="5"/>
    <rect x="25" y="90" width="5" height="5"/>
    <!-- Data region placeholder -->
    <rect x="45" y="15" width="5" height="5"/>
    <rect x="55" y="15" width="5" height="5"/>
    <rect x="65" y="15" width="5" height="5"/>
    <rect x="45" y="25" width="5" height="5"/>
    <rect x="55" y="25" width="5" height="5"/>
    <rect x="45" y="35" width="5" height="5"/>
    <rect x="65" y="35" width="5" height="5"/>
    <rect x="15" y="45" width="5" height="5"/>
    <rect x="25" y="45" width="5" height="5"/>
    <rect x="35" y="45" width="5" height="5"/>
    <rect x="55" y="45" width="5" height="5"/>
    <rect x="75" y="45" width="5" height="5"/>
    <rect x="95" y="45" width="5" height="5"/>
    <rect x="15" y="55" width="5" height="5"/>
    <rect x="35" y="55" width="5" height="5"/>
    <rect x="45" y="55" width="5" height="5"/>
    <rect x="65" y="55" width="5" height="5"/>
    <rect x="85" y="55" width="5" height="5"/>
    <rect x="15" y="65" width="5" height="5"/>
    <rect x="25" y="65" width="5" height="5"/>
    <rect x="45" y="65" width="5" height="5"/>
    <rect x="55" y="65" width="5" height="5"/>
    <rect x="75" y="65" width="5" height="5"/>
    <rect x="95" y="65" width="5" height="5"/>
    <rect x="45" y="75" width="5" height="5"/>
    <rect x="55" y="75" width="5" height="5"/>
    <rect x="65" y="75" width="5" height="5"/>
    <rect x="85" y="75" width="5" height="5"/>
    <rect x="45" y="85" width="5" height="5"/>
    <rect x="65" y="85" width="5" height="5"/>
    <rect x="75" y="85" width="5" height="5"/>
    <rect x="45" y="95" width="5" height="5"/>
    <rect x="55" y="95" width="5" height="5"/>
    <rect x="85" y="95" width="5" height="5"/>
    <rect x="95" y="95" width="5" height="5"/>
  </g>
</svg>
